<?xml version="1.0" encoding="UTF-8"?>
<!DOCTYPE svg PUBLIC "-//W3C//DTD SVG 1.1//EN" "http://www.w3.org/Graphics/SVG/1.1/DTD/svg11.dtd">
<svg xmlns="http://www.w3.org/2000/svg" version="1.1" width="10px" height="10px" viewBox="0 0 512 512" style="shape-rendering:geometricPrecision; text-rendering:geometricPrecision; image-rendering:optimizeQuality; fill-rule:evenodd; clip-rule:evenodd" xmlns:xlink="http://www.w3.org/1999/xlink">
<g><path style="opacity:0.975" fill="#000000" d="M 363.5,-0.5 C 368.167,-0.5 372.833,-0.5 377.5,-0.5C 392.447,5.37988 398.614,16.3799 396,32.5C 394.777,36.6153 392.777,40.282 390,43.5C 319.32,114.014 248.82,184.68 178.5,255.5C 249.153,326.653 319.986,397.653 391,468.5C 397.934,479.26 398.267,490.26 392,501.5C 388.023,506.226 383.189,509.559 377.5,511.5C 372.833,511.5 368.167,511.5 363.5,511.5C 360.1,509.963 356.767,508.13 353.5,506C 275.333,427.833 197.167,349.667 119,271.5C 113,260.833 113,250.167 119,239.5C 197.5,161 276,82.5 354.5,4C 357.592,2.45406 360.592,0.95406 363.5,-0.5 Z"/></g>
</svg>
