<?xml version="1.0" encoding="UTF-8"?>
<!DOCTYPE svg PUBLIC "-//W3C//DTD SVG 1.1//EN" "http://www.w3.org/Graphics/SVG/1.1/DTD/svg11.dtd">
<svg xmlns="http://www.w3.org/2000/svg" version="1.1" width="512px" height="512px" viewBox="0 0 512 512" style="shape-rendering:geometricPrecision; text-rendering:geometricPrecision; image-rendering:optimizeQuality; fill-rule:evenodd; clip-rule:evenodd" xmlns:xlink="http://www.w3.org/1999/xlink">
<g><path style="opacity:0.996" fill="#000000" d="M 12.5,-0.5 C 17.1667,-0.5 21.8333,-0.5 26.5,-0.5C 32.4802,1.98203 36.6469,6.31536 39,12.5C 39.3333,158.833 39.6667,305.167 40,451.5C 41.1667,463.333 47.6667,469.833 59.5,471C 205.833,471.333 352.167,471.667 498.5,472C 504.685,474.353 509.018,478.52 511.5,484.5C 511.5,489.167 511.5,493.833 511.5,498.5C 510.024,500.769 508.524,503.102 507,505.5C 504.264,507.752 501.431,509.752 498.5,511.5C 348.5,511.5 198.5,511.5 48.5,511.5C 22.5,504.833 6.16667,488.5 -0.5,462.5C -0.5,312.5 -0.5,162.5 -0.5,12.5C 0.97576,10.2314 2.47576,7.89805 4,5.5C 6.73612,3.24806 9.56945,1.24806 12.5,-0.5 Z"/></g>
<g><path style="opacity:0.97" fill="#000000" d="M 361.5,97.5 C 380.673,95.0404 397.673,99.8737 412.5,112C 421.135,120.295 428.635,129.462 435,139.5C 438.037,152.26 433.537,161.094 421.5,166C 415.078,167.301 409.078,166.301 403.5,163C 396.269,155.858 389.269,148.525 382.5,141C 368.858,135.212 359.024,139.045 353,152.5C 337.276,190.948 321.276,229.281 305,267.5C 285.333,294.944 259.5,303.11 227.5,292C 216.014,285.852 206.347,277.519 198.5,267C 182.961,258.737 172.128,262.904 166,279.5C 148.727,328.652 131.061,377.652 113,426.5C 106.965,435.044 98.7984,437.878 88.5,435C 77.2477,429.657 73.0811,420.824 76,408.5C 93.5303,360.243 110.864,311.909 128,263.5C 142.327,229.918 167.494,216.751 203.5,224C 211.226,226.362 218.226,230.029 224.5,235C 230.199,240.365 235.533,246.031 240.5,252C 254.95,259.369 265.45,255.536 272,240.5C 287.782,201.603 304.115,162.936 321,124.5C 330.92,110.072 344.42,101.072 361.5,97.5 Z"/></g>
</svg>
