<?xml version="1.0" ?><svg width="64px" height="64px" viewBox="0 0 64 64" data-name="Layer 1" id="Layer_1" xmlns="http://www.w3.org/2000/svg"><title/><path d="M42.93,56.44H21.07a5.54,5.54,0,0,1-4.77-2.75L5.37,34.75a5.51,5.51,0,0,1,0-5.5L16.3,10.31a5.54,5.54,0,0,1,4.77-2.75H42.93a5.54,5.54,0,0,1,4.77,2.75L58.63,29.25a5.51,5.51,0,0,1,0,5.5L47.7,53.69A5.54,5.54,0,0,1,42.93,56.44ZM21.07,10.56a2.52,2.52,0,0,0-2.17,1.25L8,30.75a2.48,2.48,0,0,0,0,2.5L18.9,52.19a2.52,2.52,0,0,0,2.17,1.25H42.93a2.52,2.52,0,0,0,2.17-1.25L56,33.25a2.48,2.48,0,0,0,0-2.5L45.1,11.81a2.52,2.52,0,0,0-2.17-1.25Z"/><path d="M32,42.07A10.07,10.07,0,1,1,42.07,32,10.08,10.08,0,0,1,32,42.07Zm0-17.14A7.07,7.07,0,1,0,39.07,32,7.08,7.08,0,0,0,32,24.93Z"/></svg>