<?xml version="1.0" encoding="UTF-8"?>
<!DOCTYPE svg PUBLIC "-//W3C//DTD SVG 1.1//EN" "http://www.w3.org/Graphics/SVG/1.1/DTD/svg11.dtd">
<svg xmlns="http://www.w3.org/2000/svg" version="1.1" width="2500px" height="2500px" viewBox="0 0 2500 2500" style="shape-rendering:geometricPrecision; text-rendering:geometricPrecision; image-rendering:optimizeQuality; fill-rule:evenodd; clip-rule:evenodd" xmlns:xlink="http://www.w3.org/1999/xlink">
<g><path style="opacity:0.994" fill="#000000" d="M 1247.5,1.5 C 1361.81,2.55075 1465.81,35.3841 1559.5,100C 1788.17,270.667 2016.83,441.333 2245.5,612C 2331.61,687.057 2379.45,781.89 2389,896.5C 2389.67,1303.5 2389.67,1710.5 2389,2117.5C 2377.91,2244.23 2321.74,2345.39 2220.5,2421C 2149.91,2470.75 2071.25,2496.08 1984.5,2497C 1494.5,2497.67 1004.5,2497.67 514.5,2497C 376.993,2493.17 267.159,2436.67 185,2327.5C 130.991,2251.15 106.325,2166.15 111,2072.5C 121.82,2036.51 145.987,2017.51 183.5,2015.5C 221.022,2017.52 245.188,2036.52 256,2072.5C 254.579,2144.25 276.912,2207.25 323,2261.5C 368.13,2311.32 424.296,2339.82 491.5,2347C 744.155,2348.16 996.822,2348.66 1249.5,2348.5C 1502.18,2348.66 1754.85,2348.16 2007.5,2347C 2106.48,2333.99 2177.32,2282.49 2220,2192.5C 2233,2161.84 2240,2129.84 2241,2096.5C 2241.67,1703.17 2241.67,1309.83 2241,916.5C 2237.33,838.329 2205.83,774.163 2146.5,724C 1923.17,557.333 1699.83,390.667 1476.5,224C 1375.32,154.19 1264.98,134.523 1145.5,165C 1100.88,177.478 1059.88,197.145 1022.5,224C 799.167,390.667 575.833,557.333 352.5,724C 297.656,769.957 266.49,828.79 259,900.5C 258.01,1151.19 257.01,1401.86 256,1652.5C 249.361,1678.47 233.528,1696.31 208.5,1706C 176.279,1715.57 148.779,1708.07 126,1683.5C 117.421,1673 112.087,1661 110,1647.5C 109.333,1397.17 109.333,1146.83 110,896.5C 119.801,779.387 169.301,683.221 258.5,608C 471.679,449.244 684.679,290.244 897.5,131C 927.613,107.437 959.28,86.104 992.5,67C 1072.25,24.3126 1157.25,2.47926 1247.5,1.5 Z"/></g>
<g><path style="opacity:0.991" fill="#000000" d="M 1271.5,410.5 C 1314.04,409.242 1341.21,428.908 1353,469.5C 1357.97,498.718 1349.47,523.218 1327.5,543C 1245.72,584.444 1185.22,646.611 1146,729.5C 1112.27,806.713 1109.27,885.047 1137,964.5C 1143.28,980.066 1149.28,995.733 1155,1011.5C 1160.35,1051.98 1144.52,1080.48 1107.5,1097C 1076.13,1106.53 1048.96,1099.7 1026,1076.5C 1023.09,1073.01 1020.42,1069.34 1018,1065.5C 964.931,955.536 955.264,841.869 989,724.5C 1026.03,611.565 1092.86,520.732 1189.5,452C 1209.18,438.485 1229.85,426.485 1251.5,416C 1258.21,413.826 1264.87,411.993 1271.5,410.5 Z"/></g>
<g><path style="opacity:0.991" fill="#000000" d="M 1390.5,777.5 C 1447.22,777.426 1489.05,802.093 1516,851.5C 1538.26,903.698 1531.92,952.031 1497,996.5C 1454.05,1040.49 1403.55,1051.99 1345.5,1031C 1294.69,1006.57 1268.02,966.073 1265.5,909.5C 1269.18,844.615 1301.84,802.115 1363.5,782C 1372.57,780.043 1381.57,778.543 1390.5,777.5 Z"/></g>
<g><path style="opacity:0.991" fill="#000000" d="M 1305.5,1123.5 C 1355.09,1121.07 1401.76,1131.57 1445.5,1155C 1492.12,1181.6 1532.95,1215.43 1568,1256.5C 1594.72,1290.27 1619.72,1325.27 1643,1361.5C 1659.09,1386.67 1674.42,1412.34 1689,1438.5C 1700.93,1473.69 1692.77,1503.19 1664.5,1527C 1622.83,1551.51 1580.83,1575.51 1538.5,1599C 1501.68,1611.17 1471.52,1602 1448,1571.5C 1430.05,1540.39 1431.72,1510.39 1453,1481.5C 1458.33,1475.26 1464.5,1470.1 1471.5,1466C 1486.52,1457.83 1501.19,1449.16 1515.5,1440C 1494.05,1404.88 1469.89,1371.72 1443,1340.5C 1419.01,1314.17 1390.85,1293.67 1358.5,1279C 1329.2,1268.16 1301.2,1270.82 1274.5,1287C 1251.16,1302.33 1231,1321.17 1214,1343.5C 1168.08,1406.31 1130.08,1473.98 1100,1546.5C 1063.91,1634.84 1034.91,1725.51 1013,1818.5C 991.581,1910.01 974.581,2002.35 962,2095.5C 954.304,2127.86 934.138,2147.36 901.5,2154C 860.835,2157.93 833.002,2141.1 818,2103.5C 814.971,2093.36 813.971,2083.03 815,2072.5C 833.591,1930.88 862.924,1791.54 903,1654.5C 937.114,1537.96 985.114,1427.62 1047,1323.5C 1073.87,1278.94 1105.7,1238.11 1142.5,1201C 1175.13,1169.67 1213.13,1147 1256.5,1133C 1272.7,1128.36 1289.03,1125.19 1305.5,1123.5 Z"/></g>
<g><path style="opacity:0.989" fill="#000000" d="M 1282.5,1483.5 C 1313.71,1482.55 1335.87,1496.21 1349,1524.5C 1409.2,1704.09 1469.2,1883.76 1529,2063.5C 1536.87,2091.94 1532.54,2118.28 1516,2142.5C 1489.46,2171.71 1459.96,2175.21 1427.5,2153C 1419.07,2145.57 1412.57,2136.74 1408,2126.5C 1347.27,1945.64 1286.93,1764.64 1227,1583.5C 1219.06,1549.08 1227.89,1519.91 1253.5,1496C 1262.3,1489.59 1271.97,1485.43 1282.5,1483.5 Z"/></g>
</svg>
